<svg xmlns="http://www.w3.org/2000/svg" viewBox="0 0 32 32" width="" height="" style="
    width: 14px;
    fill: #8890b5!important;
">
  <g data-name="Layer 5" fill="#8890b5" class="color000 svgShape" style="
    /* fill: #8890b5!Important; */
">
    <path
      d="M25,4H15a3,3,0,0,0-3,3V8a1,1,0,0,0,2,0V7a1,1,0,0,1,1-1H25a1,1,0,0,1,1,1V25a1,1,0,0,1-1,1H15a1,1,0,0,1-1-1V24a1,1,0,0,0-2,0v1a3,3,0,0,0,3,3H25a3,3,0,0,0,3-3V7A3,3,0,0,0,25,4Z"
      fill="#8890b5" class="color000 svgShape"></path>
    <path
      d="M16.88,19.54a1,1,0,0,0,0,1.41,1,1,0,0,0,1.41,0l2.83-2.83a3,3,0,0,0,0-4.24l-2.83-2.83a1,1,0,0,0-1.41,1.41L19.41,15H5a1,1,0,0,0,0,2H19.41Z"
      fill="#8890b5" class="color000 svgShape"></path>
  </g>
</svg>
